<svg width="100" height="100" viewBox="0 0 100 100" fill="none" xmlns="http://www.w3.org/2000/svg">
<g clip-path="url(#clip0)">
<circle cx="63.4416" cy="36.4416" r="36.4416" fill="url(#paint0_linear)"/>
<circle cx="26.7403" cy="75.7403" r="13.7403" fill="url(#paint1_linear)"/>
<path d="M65.6037 49.482L65.5806 49.5485L65.5638 49.6168C62.95 60.2535 58.6292 67.5308 52.8816 72.1617C47.1406 76.7872 39.8034 78.9112 30.8818 78.9112C26.5102 78.9112 23.3437 77.991 21.0141 76.4584C18.6916 74.9304 17.0644 72.704 15.9254 69.843C13.6034 64.0105 13.4238 55.8817 13.4238 46.6423C13.4238 42.3355 14.535 39.0029 16.3994 36.3942C18.2731 33.7724 20.9801 31.7814 24.3245 30.2926C31.0615 27.2936 40.1241 26.4443 49.2473 26.4443C57.862 26.4443 62.5062 30.2693 64.7666 34.9215C67.0936 39.7108 66.9713 45.5502 65.6037 49.482Z" stroke="#753422" stroke-width="3"/>
<path d="M37.3756 57.9853L37.353 58.0512L37.3365 58.1189C36.431 61.8498 34.9639 64.2813 33.1124 65.7917C31.2696 67.295 28.8744 68.0257 25.8324 68.0257C24.4018 68.0257 23.4669 67.7217 22.829 67.2969C22.1969 66.8758 21.7197 66.2449 21.3641 65.3404C20.61 63.4227 20.5327 60.6667 20.5327 57.2625C20.5327 55.8688 20.8845 54.8559 21.4257 54.0891C21.9754 53.3103 22.793 52.684 23.878 52.1949C26.0971 51.1947 29.1727 50.8828 32.4195 50.8828C35.1487 50.8828 36.4706 52.0691 37.1174 53.4169C37.8303 54.9025 37.7959 56.7617 37.3756 57.9853Z" fill="#E9A18D" fill-opacity="0.6" stroke="#753422" stroke-width="3"/>
<path d="M58.7037 40.2119L58.6811 40.2777L58.6647 40.3454C57.7592 44.0763 56.2921 46.5079 54.4405 48.0183C52.5977 49.5216 50.2025 50.2522 47.1605 50.2522C45.73 50.2522 44.795 49.9483 44.1571 49.5234C43.525 49.1024 43.0479 48.4715 42.6922 47.567C41.9381 45.6492 41.8608 42.8933 41.8608 39.489C41.8608 38.0954 42.2126 37.0825 42.7538 36.3157C43.3036 35.5369 44.1211 34.9105 45.2062 34.4215C47.4252 33.4213 50.5008 33.1094 53.7477 33.1094C56.4768 33.1094 57.7987 34.2957 58.4455 35.6435C59.1584 37.129 59.1241 38.9883 58.7037 40.2119Z" fill="#E9A18D" fill-opacity="0.6" stroke="#753422" stroke-width="3"/>
<path d="M54.1208 61.3513L54.0982 61.4172L54.0818 61.4849C53.57 63.5935 52.7607 64.8872 51.8068 65.6654C50.8616 66.4364 49.6038 66.8404 47.9148 66.8404C47.1608 66.8404 46.7391 66.6809 46.4906 66.5153C46.2478 66.3536 46.036 66.0971 45.8612 65.6525C45.4689 64.6547 45.415 63.1611 45.415 61.1268C45.415 60.4181 45.5914 59.9505 45.8273 59.6163C46.0717 59.2701 46.4539 58.9637 47.019 58.709C48.1983 58.1775 49.8958 57.9917 51.7896 57.9917C53.1658 57.9917 53.7221 58.5607 53.9962 59.1319C54.3365 59.8409 54.3224 60.7644 54.1208 61.3513Z" fill="#E9A18D" fill-opacity="0.6" stroke="#753422" stroke-width="3"/>
<path d="M31.6086 41.2087L31.586 41.2746L31.5696 41.3423C31.0578 43.4509 30.2485 44.7446 29.2946 45.5228C28.3494 46.2939 27.0916 46.6979 25.4026 46.6979C24.6486 46.6979 24.2269 46.5383 23.9784 46.3728C23.7356 46.211 23.5238 45.9545 23.349 45.5099C22.9567 44.5121 22.9028 43.0185 22.9028 40.9842C22.9028 40.2755 23.0792 39.8079 23.3151 39.4737C23.5595 39.1275 23.9417 38.8211 24.5068 38.5664C25.6861 38.0349 27.3836 37.8491 29.2774 37.8491C30.6535 37.8491 31.2099 38.4181 31.484 38.9894C31.8243 39.6983 31.8102 40.6219 31.6086 41.2087Z" fill="#E9A18D" fill-opacity="0.6" stroke="#753422" stroke-width="3"/>
<path d="M50.8437 80.3365L69.1985 48.502C70.3399 46.5222 73.1844 46.4863 74.3755 48.4366C74.941 49.3625 74.9645 50.5212 74.437 51.4693L56.6407 83.4538C56.3221 84.0263 55.8421 84.4924 55.2605 84.794L55.1577 84.8473C53.2208 85.8517 50.8639 84.7014 50.4641 82.5565C50.3221 81.7949 50.4568 81.0076 50.8437 80.3365Z" fill="#E9A18D" stroke="#753422" stroke-width="3" stroke-linejoin="round"/>
<path d="M73.4765 36.2122C73.0206 36.5053 72.5833 36.7776 72.1662 37.03C69.4845 38.653 67.937 42.0206 68.9419 44.9898C69.3619 46.2308 70.1983 47.2883 71.3092 47.9828L71.7545 48.2612C74.647 50.0696 78.4142 49.5818 80.7507 47.0964L81.8581 45.9183C83.016 44.6866 83.8131 43.1594 84.1301 41.4989C85.1587 36.1106 86.2264 29.3254 84.6999 32.4137C82.4724 36.9203 77.586 33.5704 73.4765 36.2122Z" fill="#E9A18D" stroke="#753422" stroke-width="3" stroke-linejoin="round"/>
</g>
<defs>
<linearGradient id="paint0_linear" x1="47.3117" y1="-5.79213e-07" x2="85.5455" y2="67.5065" gradientUnits="userSpaceOnUse">
<stop stop-color="#D79771"/>
<stop offset="1" stop-color="#D79771" stop-opacity="0.28"/>
</linearGradient>
<linearGradient id="paint1_linear" x1="20.6585" y1="62" x2="35.0745" y2="87.4533" gradientUnits="userSpaceOnUse">
<stop stop-color="#D79771"/>
<stop offset="1" stop-color="#D79771" stop-opacity="0.28"/>
</linearGradient>
<clipPath id="clip0">
<rect width="100" height="100" fill="white"/>
</clipPath>
</defs>
</svg>
