<svg width="100" height="100" viewBox="0 0 100 100" fill="none" xmlns="http://www.w3.org/2000/svg">
<circle cx="30.5" cy="66.5" r="30.5" fill="url(#paint0_linear)"/>
<circle cx="73.5" cy="24.5" r="11.5" fill="url(#paint1_linear)"/>
<path d="M13 32.5L43.6462 9.71182C48.605 6.02445 55.395 6.02446 60.3538 9.71183L91 32.5" stroke="#753422" stroke-width="3" stroke-linejoin="round"/>
<path d="M21 33V75C21 77.2091 22.7909 79 25 79H81C83.2091 79 85 77.2091 85 75V37C85 34.7909 83.2091 33 81 33H31.2937" stroke="#753422" stroke-width="3" stroke-linejoin="round"/>
<path d="M36 79.5V65C36 57.268 42.268 51 50 51H50.5C58.232 51 64.5 57.268 64.5 65V79.5M70 16V10C70 8.34315 71.3431 7 73 7H78C79.6569 7 81 8.34315 81 10V25" stroke="#753422" stroke-width="3" stroke-linejoin="round"/>
<rect x="67.5" y="46.5" width="11" height="8" rx="2.5" stroke="#753422" stroke-width="3"/>
<rect x="27.5" y="37.5" width="17" height="8" rx="2.5" stroke="#753422" stroke-width="3"/>
<path d="M33.5 21.5L44 29M42.5 15L57.5 28M52 11L70.5 26" stroke="#753422" stroke-width="3" stroke-linejoin="round"/>
<path d="M42 79V66.5C42 61.8056 45.8056 58 50.5 58V58C55.1944 58 59 61.8056 59 66.5V79" stroke="#753422" stroke-width="3" stroke-linejoin="round"/>
<defs>
<linearGradient id="paint0_linear" x1="17" y1="36" x2="49" y2="92.5" gradientUnits="userSpaceOnUse">
<stop stop-color="#D79771"/>
<stop offset="1" stop-color="#D79771" stop-opacity="0.28"/>
</linearGradient>
<linearGradient id="paint1_linear" x1="68.4098" y1="13" x2="80.4754" y2="34.3033" gradientUnits="userSpaceOnUse">
<stop stop-color="#D79771"/>
<stop offset="1" stop-color="#D79771" stop-opacity="0.28"/>
</linearGradient>
</defs>
</svg>
