<svg width="70" height="70" viewBox="0 0 70 70" fill="none" xmlns="http://www.w3.org/2000/svg">
<circle cx="35" cy="35" r="33.5" fill="#905959" stroke="#905959" stroke-width="3"/>
<path d="M29.9102 47H23.9688V27.9805H29.9102V47ZM23.6172 23.0762C23.6172 22.2324 23.9219 21.541 24.5312 21.002C25.1406 20.4629 25.9316 20.1934 26.9043 20.1934C27.877 20.1934 28.668 20.4629 29.2773 21.002C29.8867 21.541 30.1914 22.2324 30.1914 23.0762C30.1914 23.9199 29.8867 24.6113 29.2773 25.1504C28.668 25.6895 27.877 25.959 26.9043 25.959C25.9316 25.959 25.1406 25.6895 24.5312 25.1504C23.9219 24.6113 23.6172 23.9199 23.6172 23.0762ZM39.0156 27.9805L39.209 30.2129C40.5215 28.4902 42.332 27.6289 44.6406 27.6289C46.6211 27.6289 48.0977 28.2207 49.0703 29.4043C50.0547 30.5879 50.5645 32.3691 50.5996 34.748V47H44.6582V34.9941C44.6582 34.0332 44.4648 33.3301 44.0781 32.8848C43.6914 32.4277 42.9883 32.1992 41.9688 32.1992C40.8086 32.1992 39.9473 32.6562 39.3848 33.5703V47H33.4609V27.9805H39.0156Z" fill="#EAE7E7"/>
</svg>
