<svg width="70" height="70" viewBox="0 0 70 70" fill="none" xmlns="http://www.w3.org/2000/svg">
<circle cx="35" cy="35" r="33.5" fill="#FFD6D6" stroke="#C28282" stroke-width="3"/>
<path d="M36.5088 39.0947L32.4893 29.374H32.1406L28.3467 39.0947H36.5088ZM20.7588 47.9336C21.7705 47.8652 22.584 47.4072 23.1992 46.5596C23.5957 46.0264 24.1631 44.8506 24.9014 43.0322L34.2324 20.043H35.4014L44.7734 42.1094C45.8262 44.584 46.6123 46.1836 47.1318 46.9082C47.6514 47.6191 48.3896 47.9609 49.3467 47.9336V49H35.75V47.9336C37.1172 47.8789 38.0127 47.7627 38.4365 47.585C38.874 47.4072 39.0928 46.9561 39.0928 46.2314C39.0928 45.9033 38.9834 45.4043 38.7646 44.7344C38.6279 44.3379 38.4434 43.8594 38.2109 43.2988L37.1445 40.7559H27.7109C27.0957 42.4238 26.6992 43.5107 26.5215 44.0166C26.1523 45.0967 25.9678 45.8828 25.9678 46.375C25.9678 46.9766 26.3711 47.4141 27.1777 47.6875C27.6562 47.8379 28.374 47.9199 29.3311 47.9336V49H20.7588V47.9336Z" fill="#C28282"/>
</svg>
