<svg width="106" height="24" viewBox="0 0 106 24" fill="none" xmlns="http://www.w3.org/2000/svg">
<path d="M14.7256 19.0156H7.67969L6.44922 23H0.956055L8.77832 1.67188H13.6123L21.4932 23H15.9707L14.7256 19.0156ZM8.91016 15.0459H13.4951L11.1953 7.64844L8.91016 15.0459ZM28.041 23H23.0898V0.5H28.041V23ZM35.7607 7.15039L35.9219 9.01074C37.0449 7.5752 38.5537 6.85742 40.4482 6.85742C42.4502 6.85742 43.8027 7.65332 44.5059 9.24512C45.5801 7.65332 47.1328 6.85742 49.1641 6.85742C52.377 6.85742 54.0273 8.80078 54.1152 12.6875V23H49.1641V12.9951C49.1641 12.1846 49.0273 11.5938 48.7539 11.2227C48.4805 10.8516 47.9824 10.666 47.2598 10.666C46.2832 10.666 45.5557 11.1006 45.0771 11.9697L45.0918 12.1748V23H40.1406V13.0244C40.1406 12.1943 40.0088 11.5938 39.7451 11.2227C39.4814 10.8516 38.9785 10.666 38.2363 10.666C37.2891 10.666 36.5664 11.1006 36.0684 11.9697V23H31.1318V7.15039H35.7607ZM56.3125 14.9287C56.3125 13.3467 56.6201 11.9404 57.2354 10.71C57.8506 9.46973 58.7344 8.51758 59.8867 7.85352C61.0391 7.18945 62.3916 6.85742 63.9443 6.85742C66.3174 6.85742 68.1875 7.59473 69.5547 9.06934C70.9219 10.5342 71.6055 12.5312 71.6055 15.0605V15.2363C71.6055 17.707 70.917 19.6699 69.54 21.125C68.1729 22.5703 66.3174 23.293 63.9736 23.293C61.7178 23.293 59.9062 22.6191 58.5391 21.2715C57.1719 19.9141 56.4346 18.0781 56.3271 15.7637L56.3125 14.9287ZM61.249 15.2363C61.249 16.7012 61.4785 17.7754 61.9375 18.459C62.3965 19.1426 63.0752 19.4844 63.9736 19.4844C65.7314 19.4844 66.6299 18.1318 66.6689 15.4268V14.9287C66.6689 12.0869 65.7607 10.666 63.9443 10.666C62.2939 10.666 61.4004 11.8916 61.2637 14.3428L61.249 15.2363ZM82.0791 18.5469C82.0791 18.127 81.8594 17.79 81.4199 17.5361C80.9805 17.2822 80.1455 17.0186 78.915 16.7451C77.6846 16.4717 76.6689 16.1152 75.8682 15.6758C75.0674 15.2266 74.457 14.6846 74.0371 14.0498C73.6172 13.415 73.4072 12.6875 73.4072 11.8672C73.4072 10.4121 74.0078 9.21582 75.209 8.27832C76.4102 7.33105 77.9824 6.85742 79.9258 6.85742C82.0156 6.85742 83.6953 7.33105 84.9648 8.27832C86.2344 9.22559 86.8691 10.4707 86.8691 12.0137H81.918C81.918 10.7441 81.249 10.1094 79.9111 10.1094C79.3936 10.1094 78.959 10.2559 78.6074 10.5488C78.2559 10.832 78.0801 11.1885 78.0801 11.6182C78.0801 12.0576 78.2949 12.4141 78.7246 12.6875C79.1543 12.9609 79.8379 13.1855 80.7754 13.3613C81.7227 13.5371 82.5527 13.7471 83.2656 13.9912C85.6484 14.8115 86.8398 16.2812 86.8398 18.4004C86.8398 19.8457 86.1953 21.0225 84.9062 21.9307C83.627 22.8389 81.9668 23.293 79.9258 23.293C78.5684 23.293 77.3574 23.0488 76.293 22.5605C75.2285 22.0723 74.3984 21.4082 73.8027 20.5684C73.207 19.7285 72.9092 18.8447 72.9092 17.917H77.5234C77.543 18.6494 77.7871 19.1865 78.2559 19.5283C78.7246 19.8604 79.3252 20.0264 80.0576 20.0264C80.7314 20.0264 81.2344 19.8896 81.5664 19.6162C81.9082 19.3428 82.0791 18.9863 82.0791 18.5469ZM94.9111 3.20996V7.15039H97.5186V10.5781H94.9111V17.8291C94.9111 18.4248 95.0186 18.8398 95.2334 19.0742C95.4482 19.3086 95.873 19.4258 96.5078 19.4258C96.9961 19.4258 97.4062 19.3965 97.7383 19.3379V22.8682C96.8496 23.1514 95.9219 23.293 94.9551 23.293C93.2559 23.293 92.001 22.8926 91.1904 22.0918C90.3799 21.291 89.9746 20.0752 89.9746 18.4443V10.5781H87.9531V7.15039H89.9746V3.20996H94.9111ZM102.528 18.21C103.31 18.21 103.959 18.4443 104.477 18.9131C104.994 19.3721 105.253 19.9629 105.253 20.6855C105.253 21.4082 104.994 22.0039 104.477 22.4727C103.959 22.9316 103.31 23.1611 102.528 23.1611C101.737 23.1611 101.083 22.9268 100.565 22.458C100.058 21.9893 99.8037 21.3984 99.8037 20.6855C99.8037 19.9727 100.058 19.3818 100.565 18.9131C101.083 18.4443 101.737 18.21 102.528 18.21Z" fill="#442222"/>
</svg>
